<svg width="1024" height="753" viewBox="0 0 1024 753" fill="none" xmlns="http://www.w3.org/2000/svg">
<g opacity="0.2" filter="url(#filter0_f_175_198)">
<ellipse cx="569.5" cy="27" rx="670.5" ry="350" fill="#B3A659"/>
</g>
<path d="M90.0349 263C91.5302 263 92.6622 263.63 93.4308 264.891C94.2134 266.138 94.6047 267.953 94.6047 270.336C94.6047 272.719 94.2134 274.541 93.4308 275.802C92.6622 277.063 91.5302 277.693 90.0349 277.693C88.5536 277.693 87.4216 277.063 86.639 275.802C85.8564 274.541 85.4651 272.719 85.4651 270.336C85.4651 267.967 85.8564 266.152 86.639 264.891C87.4216 263.63 88.5536 263 90.0349 263ZM86.9534 270.336C86.9534 272.026 87.1072 273.35 87.4146 274.306L92.0683 265.099C91.5791 264.448 90.9013 264.122 90.0349 264.122C89.0706 264.122 88.316 264.635 87.771 265.66C87.2259 266.672 86.9534 268.23 86.9534 270.336ZM90.0349 276.55C91.0131 276.55 91.7748 276.044 92.3198 275.033C92.8648 274.008 93.1373 272.442 93.1373 270.336C93.1373 268.549 92.9627 267.163 92.6133 266.18L87.9596 275.469C88.4627 276.19 89.1545 276.55 90.0349 276.55Z" fill="url(#paint0_linear_175_198)" fill-opacity="0.6"/>
<path d="M91.2926 300.135H94.3741V301.236H86.3874V300.135H89.9511V288.455L86.5551 290.471L85.9682 289.536L90.1607 286.959H91.2926V300.135Z" fill="url(#paint1_linear_175_198)" fill-opacity="0.6"/>
<path d="M90.0349 310.502C91.5302 310.502 92.6622 311.133 93.4308 312.393C94.2134 313.64 94.6047 315.455 94.6047 317.838C94.6047 320.221 94.2134 322.043 93.4308 323.304C92.6622 324.565 91.5302 325.195 90.0349 325.195C88.5536 325.195 87.4216 324.565 86.639 323.304C85.8564 322.043 85.4651 320.221 85.4651 317.838C85.4651 315.469 85.8564 313.654 86.639 312.393C87.4216 311.133 88.5536 310.502 90.0349 310.502ZM86.9534 317.838C86.9534 319.529 87.1072 320.852 87.4146 321.808L92.0683 312.601C91.5791 311.95 90.9013 311.624 90.0349 311.624C89.0706 311.624 88.316 312.137 87.771 313.162C87.2259 314.174 86.9534 315.732 86.9534 317.838ZM90.0349 324.052C91.0131 324.052 91.7748 323.546 92.3198 322.535C92.8648 321.51 93.1373 319.944 93.1373 317.838C93.1373 316.051 92.9627 314.665 92.6133 313.682L87.9596 322.971C88.4627 323.692 89.1545 324.052 90.0349 324.052Z" fill="url(#paint2_linear_175_198)" fill-opacity="0.6"/>
<path d="M91.2926 347.637H94.3741V348.738H86.3874V347.637H89.9511V335.957L86.5551 337.973L85.9682 337.038L90.1607 334.461H91.2926V347.637Z" fill="url(#paint3_linear_175_198)" fill-opacity="0.6"/>
<path d="M91.2926 371.388H94.3741V372.489H86.3874V371.388H89.9511V359.708L86.5551 361.724L85.9682 360.789L90.1607 358.212H91.2926V371.388Z" fill="url(#paint4_linear_175_198)" fill-opacity="0.6"/>
<path d="M90.0349 381.755C91.5302 381.755 92.6622 382.386 93.4308 383.646C94.2134 384.893 94.6047 386.708 94.6047 389.091C94.6047 391.474 94.2134 393.296 93.4308 394.557C92.6622 395.818 91.5302 396.448 90.0349 396.448C88.5536 396.448 87.4216 395.818 86.639 394.557C85.8564 393.296 85.4651 391.474 85.4651 389.091C85.4651 386.722 85.8564 384.907 86.639 383.646C87.4216 382.386 88.5536 381.755 90.0349 381.755ZM86.9534 389.091C86.9534 390.782 87.1072 392.105 87.4146 393.061L92.0683 383.854C91.5791 383.203 90.9013 382.878 90.0349 382.878C89.0706 382.878 88.316 383.39 87.771 384.415C87.2259 385.427 86.9534 386.985 86.9534 389.091ZM90.0349 395.305C91.0131 395.305 91.7748 394.8 92.3198 393.788C92.8648 392.763 93.1373 391.197 93.1373 389.091C93.1373 387.304 92.9627 385.919 92.6133 384.935L87.9596 394.225C88.4627 394.945 89.1545 395.305 90.0349 395.305Z" fill="url(#paint5_linear_175_198)" fill-opacity="0.6"/>
<path d="M91.2926 418.89H94.3741V419.992H86.3874V418.89H89.9511V407.21L86.5551 409.226L85.9682 408.291L90.1607 405.714H91.2926V418.89Z" fill="url(#paint6_linear_175_198)" fill-opacity="0.6"/>
<path d="M90.0349 429.257C91.5302 429.257 92.6622 429.888 93.4308 431.149C94.2134 432.396 94.6047 434.211 94.6047 436.594C94.6047 438.977 94.2134 440.798 93.4308 442.059C92.6622 443.32 91.5302 443.95 90.0349 443.95C88.5536 443.95 87.4216 443.32 86.639 442.059C85.8564 440.798 85.4651 438.977 85.4651 436.594C85.4651 434.224 85.8564 432.409 86.639 431.149C87.4216 429.888 88.5536 429.257 90.0349 429.257ZM86.9534 436.594C86.9534 438.284 87.1072 439.607 87.4146 440.563L92.0683 431.356C91.5791 430.705 90.9013 430.38 90.0349 430.38C89.0706 430.38 88.316 430.892 87.771 431.918C87.2259 432.929 86.9534 434.488 86.9534 436.594ZM90.0349 442.807C91.0131 442.807 91.7748 442.302 92.3198 441.29C92.8648 440.265 93.1373 438.699 93.1373 436.594C93.1373 434.806 92.9627 433.421 92.6133 432.437L87.9596 441.727C88.4627 442.447 89.1545 442.807 90.0349 442.807Z" fill="url(#paint7_linear_175_198)" fill-opacity="0.6"/>
<path d="M90.0349 453.008C91.5302 453.008 92.6622 453.639 93.4308 454.9C94.2134 456.147 94.6047 457.962 94.6047 460.345C94.6047 462.728 94.2134 464.549 93.4308 465.81C92.6622 467.071 91.5302 467.701 90.0349 467.701C88.5536 467.701 87.4216 467.071 86.639 465.81C85.8564 464.549 85.4651 462.728 85.4651 460.345C85.4651 457.975 85.8564 456.16 86.639 454.9C87.4216 453.639 88.5536 453.008 90.0349 453.008ZM86.9534 460.345C86.9534 462.035 87.1072 463.358 87.4146 464.314L92.0683 455.107C91.5791 454.456 90.9013 454.131 90.0349 454.131C89.0706 454.131 88.316 454.643 87.771 455.669C87.2259 456.68 86.9534 458.239 86.9534 460.345ZM90.0349 466.558C91.0131 466.558 91.7748 466.053 92.3198 465.041C92.8648 464.016 93.1373 462.451 93.1373 460.345C93.1373 458.557 92.9627 457.172 92.6133 456.188L87.9596 465.478C88.4627 466.198 89.1545 466.558 90.0349 466.558Z" fill="url(#paint8_linear_175_198)" fill-opacity="0.6"/>
<path d="M91.2926 490.143H94.3741V491.245H86.3874V490.143H89.9511V478.464L86.5551 480.48L85.9682 479.544L90.1607 476.967H91.2926V490.143Z" fill="url(#paint9_linear_175_198)" fill-opacity="0.6"/>
<path d="M90.0349 500.511C91.5302 500.511 92.6622 501.141 93.4308 502.402C94.2134 503.649 94.6047 505.464 94.6047 507.847C94.6047 510.23 94.2134 512.052 93.4308 513.312C92.6622 514.573 91.5302 515.204 90.0349 515.204C88.5536 515.204 87.4216 514.573 86.639 513.312C85.8564 512.052 85.4651 510.23 85.4651 507.847C85.4651 505.478 85.8564 503.663 86.639 502.402C87.4216 501.141 88.5536 500.511 90.0349 500.511ZM86.9534 507.847C86.9534 509.537 87.1072 510.86 87.4146 511.816L92.0683 502.61C91.5791 501.958 90.9013 501.633 90.0349 501.633C89.0706 501.633 88.316 502.145 87.771 503.171C87.2259 504.182 86.9534 505.741 86.9534 507.847ZM90.0349 514.061C91.0131 514.061 91.7748 513.555 92.3198 512.543C92.8648 511.518 93.1373 509.953 93.1373 507.847C93.1373 506.059 92.9627 504.674 92.6133 503.69L87.9596 512.98C88.4627 513.7 89.1545 514.061 90.0349 514.061Z" fill="url(#paint10_linear_175_198)" fill-opacity="0.6"/>
<path d="M91.2926 537.645H94.3741V538.747H86.3874V537.645H89.9511V525.966L86.5551 527.982L85.9682 527.046L90.1607 524.469H91.2926V537.645Z" fill="url(#paint11_linear_175_198)" fill-opacity="0.6"/>
<path d="M91.2926 561.396H94.3741V562.498H86.3874V561.396H89.9511V549.717L86.5551 551.733L85.9682 550.798L90.1607 548.221H91.2926V561.396Z" fill="url(#paint12_linear_175_198)" fill-opacity="0.6"/>
<path d="M128.965 310.502C130.46 310.502 131.592 311.133 132.361 312.393C133.144 313.64 133.535 315.455 133.535 317.838C133.535 320.221 133.144 322.043 132.361 323.304C131.592 324.565 130.46 325.195 128.965 325.195C127.484 325.195 126.352 324.565 125.569 323.304C124.787 322.043 124.395 320.221 124.395 317.838C124.395 315.469 124.787 313.654 125.569 312.393C126.352 311.133 127.484 310.502 128.965 310.502ZM125.884 317.838C125.884 319.529 126.037 320.852 126.345 321.808L130.998 312.601C130.509 311.95 129.832 311.624 128.965 311.624C128.001 311.624 127.246 312.137 126.701 313.162C126.156 314.174 125.884 315.732 125.884 317.838ZM128.965 324.052C129.943 324.052 130.705 323.546 131.25 322.535C131.795 321.51 132.068 319.944 132.068 317.838C132.068 316.051 131.893 314.665 131.543 313.682L126.89 322.971C127.393 323.692 128.085 324.052 128.965 324.052Z" fill="url(#paint13_linear_175_198)" fill-opacity="0.6"/>
<path d="M130.223 347.637H133.304V348.738H125.318V347.637H128.881V335.957L125.485 337.973L124.898 337.038L129.091 334.461H130.223V347.637Z" fill="url(#paint14_linear_175_198)" fill-opacity="0.6"/>
<path d="M128.965 358.004C130.46 358.004 131.592 358.635 132.361 359.895C133.144 361.142 133.535 362.957 133.535 365.34C133.535 367.723 133.144 369.545 132.361 370.806C131.592 372.067 130.46 372.697 128.965 372.697C127.484 372.697 126.352 372.067 125.569 370.806C124.787 369.545 124.395 367.723 124.395 365.34C124.395 362.971 124.787 361.156 125.569 359.895C126.352 358.635 127.484 358.004 128.965 358.004ZM125.884 365.34C125.884 367.031 126.037 368.354 126.345 369.31L130.998 360.103C130.509 359.452 129.832 359.126 128.965 359.126C128.001 359.126 127.246 359.639 126.701 360.664C126.156 361.676 125.884 363.234 125.884 365.34ZM128.965 371.554C129.943 371.554 130.705 371.049 131.25 370.037C131.795 369.012 132.068 367.446 132.068 365.34C132.068 363.553 131.893 362.168 131.543 361.184L126.89 370.474C127.393 371.194 128.085 371.554 128.965 371.554Z" fill="url(#paint15_linear_175_198)" fill-opacity="0.6"/>
<path d="M128.965 381.755C130.46 381.755 131.592 382.386 132.361 383.646C133.144 384.893 133.535 386.708 133.535 389.091C133.535 391.474 133.144 393.296 132.361 394.557C131.592 395.818 130.46 396.448 128.965 396.448C127.484 396.448 126.352 395.818 125.569 394.557C124.787 393.296 124.395 391.474 124.395 389.091C124.395 386.722 124.787 384.907 125.569 383.646C126.352 382.386 127.484 381.755 128.965 381.755ZM125.884 389.091C125.884 390.782 126.037 392.105 126.345 393.061L130.998 383.854C130.509 383.203 129.832 382.878 128.965 382.878C128.001 382.878 127.246 383.39 126.701 384.415C126.156 385.427 125.884 386.985 125.884 389.091ZM128.965 395.305C129.943 395.305 130.705 394.8 131.25 393.788C131.795 392.763 132.068 391.197 132.068 389.091C132.068 387.304 131.893 385.919 131.543 384.935L126.89 394.225C127.393 394.945 128.085 395.305 128.965 395.305Z" fill="url(#paint16_linear_175_198)" fill-opacity="0.6"/>
<path d="M130.223 418.89H133.304V419.992H125.318V418.89H128.881V407.21L125.485 409.226L124.898 408.291L129.091 405.714H130.223V418.89Z" fill="url(#paint17_linear_175_198)" fill-opacity="0.6"/>
<path d="M128.965 429.257C130.46 429.257 131.592 429.888 132.361 431.149C133.144 432.396 133.535 434.211 133.535 436.594C133.535 438.977 133.144 440.798 132.361 442.059C131.592 443.32 130.46 443.95 128.965 443.95C127.484 443.95 126.352 443.32 125.569 442.059C124.787 440.798 124.395 438.977 124.395 436.594C124.395 434.224 124.787 432.409 125.569 431.149C126.352 429.888 127.484 429.257 128.965 429.257ZM125.884 436.594C125.884 438.284 126.037 439.607 126.345 440.563L130.998 431.356C130.509 430.705 129.832 430.38 128.965 430.38C128.001 430.38 127.246 430.892 126.701 431.918C126.156 432.929 125.884 434.488 125.884 436.594ZM128.965 442.807C129.943 442.807 130.705 442.302 131.25 441.29C131.795 440.265 132.068 438.699 132.068 436.594C132.068 434.806 131.893 433.421 131.543 432.437L126.89 441.727C127.393 442.447 128.085 442.807 128.965 442.807Z" fill="url(#paint18_linear_175_198)" fill-opacity="0.6"/>
<path d="M130.223 466.392H133.304V467.494H125.318V466.392H128.881V454.713L125.485 456.728L124.898 455.793L129.091 453.216H130.223V466.392Z" fill="url(#paint19_linear_175_198)" fill-opacity="0.6"/>
<path d="M128.965 476.76C130.46 476.76 131.592 477.39 132.361 478.651C133.144 479.898 133.535 481.713 133.535 484.096C133.535 486.479 133.144 488.301 132.361 489.561C131.592 490.822 130.46 491.453 128.965 491.453C127.484 491.453 126.352 490.822 125.569 489.561C124.787 488.301 124.395 486.479 124.395 484.096C124.395 481.726 124.787 479.911 125.569 478.651C126.352 477.39 127.484 476.76 128.965 476.76ZM125.884 484.096C125.884 485.786 126.037 487.109 126.345 488.065L130.998 478.859C130.509 478.207 129.832 477.882 128.965 477.882C128.001 477.882 127.246 478.394 126.701 479.42C126.156 480.431 125.884 481.99 125.884 484.096ZM128.965 490.31C129.943 490.31 130.705 489.804 131.25 488.792C131.795 487.767 132.068 486.202 132.068 484.096C132.068 482.308 131.893 480.923 131.543 479.939L126.89 489.229C127.393 489.949 128.085 490.31 128.965 490.31Z" fill="url(#paint20_linear_175_198)" fill-opacity="0.6"/>
<path d="M128.965 500.511C130.46 500.511 131.592 501.141 132.361 502.402C133.144 503.649 133.535 505.464 133.535 507.847C133.535 510.23 133.144 512.052 132.361 513.312C131.592 514.573 130.46 515.204 128.965 515.204C127.484 515.204 126.352 514.573 125.569 513.312C124.787 512.052 124.395 510.23 124.395 507.847C124.395 505.478 124.787 503.663 125.569 502.402C126.352 501.141 127.484 500.511 128.965 500.511ZM125.884 507.847C125.884 509.537 126.037 510.86 126.345 511.816L130.998 502.61C130.509 501.958 129.832 501.633 128.965 501.633C128.001 501.633 127.246 502.145 126.701 503.171C126.156 504.182 125.884 505.741 125.884 507.847ZM128.965 514.061C129.943 514.061 130.705 513.555 131.25 512.543C131.795 511.518 132.068 509.953 132.068 507.847C132.068 506.059 131.893 504.674 131.543 503.69L126.89 512.98C127.393 513.7 128.085 514.061 128.965 514.061Z" fill="url(#paint21_linear_175_198)" fill-opacity="0.6"/>
<path d="M130.223 537.645H133.304V538.747H125.318V537.645H128.881V525.966L125.485 527.982L124.898 527.046L129.091 524.469H130.223V537.645Z" fill="url(#paint22_linear_175_198)" fill-opacity="0.6"/>
<path d="M128.965 548.013C130.46 548.013 131.592 548.643 132.361 549.904C133.144 551.151 133.535 552.966 133.535 555.349C133.535 557.732 133.144 559.554 132.361 560.815C131.592 562.075 130.46 562.706 128.965 562.706C127.484 562.706 126.352 562.075 125.569 560.815C124.787 559.554 124.395 557.732 124.395 555.349C124.395 552.98 124.787 551.165 125.569 549.904C126.352 548.643 127.484 548.013 128.965 548.013ZM125.884 555.349C125.884 557.039 126.037 558.362 126.345 559.318L130.998 550.112C130.509 549.461 129.832 549.135 128.965 549.135C128.001 549.135 127.246 549.648 126.701 550.673C126.156 551.684 125.884 553.243 125.884 555.349ZM128.965 561.563C129.943 561.563 130.705 561.057 131.25 560.046C131.795 559.02 132.068 557.455 132.068 555.349C132.068 553.562 131.893 552.176 131.543 551.192L126.89 560.482C127.393 561.202 128.085 561.563 128.965 561.563Z" fill="url(#paint23_linear_175_198)" fill-opacity="0.6"/>
<path d="M130.223 585.148H133.304V586.249H125.318V585.148H128.881V573.468L125.485 575.484L124.898 574.549L129.091 571.972H130.223V585.148Z" fill="url(#paint24_linear_175_198)" fill-opacity="0.6"/>
<path d="M130.223 608.899H133.304V610H125.318V608.899H128.881V597.219L125.485 599.235L124.898 598.3L129.091 595.723H130.223V608.899Z" fill="url(#paint25_linear_175_198)" fill-opacity="0.6"/>
<path d="M70.5698 334.253C72.0651 334.253 73.1971 334.884 73.9657 336.144C74.7483 337.391 75.1396 339.206 75.1396 341.589C75.1396 343.972 74.7483 345.794 73.9657 347.055C73.1971 348.316 72.0651 348.946 70.5698 348.946C69.0885 348.946 67.9565 348.316 67.1739 347.055C66.3913 345.794 66 343.972 66 341.589C66 339.22 66.3913 337.405 67.1739 336.144C67.9565 334.884 69.0885 334.253 70.5698 334.253ZM67.4883 341.589C67.4883 343.28 67.6421 344.603 67.9495 345.559L72.6032 336.352C72.114 335.701 71.4363 335.375 70.5698 335.375C69.6055 335.375 68.8509 335.888 68.3059 336.913C67.7608 337.925 67.4883 339.483 67.4883 341.589ZM70.5698 347.803C71.5481 347.803 72.3097 347.297 72.8547 346.286C73.3997 345.261 73.6722 343.695 73.6722 341.589C73.6722 339.802 73.4976 338.417 73.1482 337.433L68.4945 346.722C68.9976 347.443 69.6894 347.803 70.5698 347.803Z" fill="url(#paint26_linear_175_198)" fill-opacity="0.6"/>
<path d="M70.5698 358.004C72.0651 358.004 73.1971 358.635 73.9657 359.895C74.7483 361.142 75.1396 362.957 75.1396 365.34C75.1396 367.723 74.7483 369.545 73.9657 370.806C73.1971 372.067 72.0651 372.697 70.5698 372.697C69.0885 372.697 67.9565 372.067 67.1739 370.806C66.3913 369.545 66 367.723 66 365.34C66 362.971 66.3913 361.156 67.1739 359.895C67.9565 358.635 69.0885 358.004 70.5698 358.004ZM67.4883 365.34C67.4883 367.031 67.6421 368.354 67.9495 369.31L72.6032 360.103C72.114 359.452 71.4363 359.126 70.5698 359.126C69.6055 359.126 68.8509 359.639 68.3059 360.664C67.7608 361.676 67.4883 363.234 67.4883 365.34ZM70.5698 371.554C71.5481 371.554 72.3097 371.049 72.8547 370.037C73.3997 369.012 73.6722 367.446 73.6722 365.34C73.6722 363.553 73.4976 362.168 73.1482 361.184L68.4945 370.474C68.9976 371.194 69.6894 371.554 70.5698 371.554Z" fill="url(#paint27_linear_175_198)" fill-opacity="0.6"/>
<path d="M71.8276 395.139H74.909V396.24H66.9223V395.139H70.486V383.459L67.09 385.475L66.5031 384.54L70.6956 381.963H71.8276V395.139Z" fill="url(#paint28_linear_175_198)" fill-opacity="0.6"/>
<path d="M70.5698 405.506C72.0651 405.506 73.1971 406.137 73.9657 407.398C74.7483 408.644 75.1396 410.459 75.1396 412.842C75.1396 415.225 74.7483 417.047 73.9657 418.308C73.1971 419.569 72.0651 420.199 70.5698 420.199C69.0885 420.199 67.9565 419.569 67.1739 418.308C66.3913 417.047 66 415.225 66 412.842C66 410.473 66.3913 408.658 67.1739 407.398C67.9565 406.137 69.0885 405.506 70.5698 405.506ZM67.4883 412.842C67.4883 414.533 67.6421 415.856 67.9495 416.812L72.6032 407.605C72.114 406.954 71.4363 406.629 70.5698 406.629C69.6055 406.629 68.8509 407.141 68.3059 408.166C67.7608 409.178 67.4883 410.737 67.4883 412.842ZM70.5698 419.056C71.5481 419.056 72.3097 418.551 72.8547 417.539C73.3997 416.514 73.6722 414.948 73.6722 412.842C73.6722 411.055 73.4976 409.67 73.1482 408.686L68.4945 417.976C68.9976 418.696 69.6894 419.056 70.5698 419.056Z" fill="url(#paint29_linear_175_198)" fill-opacity="0.6"/>
<path d="M71.8276 442.641H74.909V443.743H66.9223V442.641H70.486V430.962L67.09 432.977L66.5031 432.042L70.6956 429.465H71.8276V442.641Z" fill="url(#paint30_linear_175_198)" fill-opacity="0.6"/>
<path d="M71.8276 466.392H74.909V467.494H66.9223V466.392H70.486V454.713L67.09 456.728L66.5031 455.793L70.6956 453.216H71.8276V466.392Z" fill="url(#paint31_linear_175_198)" fill-opacity="0.6"/>
<path d="M110.758 300.135H113.839V301.236H105.853V300.135H109.416V288.455L106.02 290.471L105.433 289.536L109.626 286.959H110.758V300.135Z" fill="url(#paint32_linear_175_198)" fill-opacity="0.6"/>
<path d="M109.5 310.502C110.995 310.502 112.127 311.133 112.896 312.393C113.679 313.64 114.07 315.455 114.07 317.838C114.07 320.221 113.679 322.043 112.896 323.304C112.127 324.565 110.995 325.195 109.5 325.195C108.019 325.195 106.887 324.565 106.104 323.304C105.321 322.043 104.93 320.221 104.93 317.838C104.93 315.469 105.321 313.654 106.104 312.393C106.887 311.133 108.019 310.502 109.5 310.502ZM106.419 317.838C106.419 319.529 106.572 320.852 106.88 321.808L111.533 312.601C111.044 311.95 110.366 311.624 109.5 311.624C108.536 311.624 107.781 312.137 107.236 313.162C106.691 314.174 106.419 315.732 106.419 317.838ZM109.5 324.052C110.478 324.052 111.24 323.546 111.785 322.535C112.33 321.51 112.602 319.944 112.602 317.838C112.602 316.051 112.428 314.665 112.078 313.682L107.425 322.971C107.928 323.692 108.62 324.052 109.5 324.052Z" fill="url(#paint33_linear_175_198)" fill-opacity="0.6"/>
<path d="M110.758 347.637H113.839V348.738H105.853V347.637H109.416V335.957L106.02 337.973L105.433 337.038L109.626 334.461H110.758V347.637Z" fill="url(#paint34_linear_175_198)" fill-opacity="0.6"/>
<path d="M110.758 371.388H113.839V372.489H105.853V371.388H109.416V359.708L106.02 361.724L105.433 360.789L109.626 358.212H110.758V371.388Z" fill="url(#paint35_linear_175_198)" fill-opacity="0.6"/>
<path d="M109.5 381.755C110.995 381.755 112.127 382.386 112.896 383.646C113.679 384.893 114.07 386.708 114.07 389.091C114.07 391.474 113.679 393.296 112.896 394.557C112.127 395.818 110.995 396.448 109.5 396.448C108.019 396.448 106.887 395.818 106.104 394.557C105.321 393.296 104.93 391.474 104.93 389.091C104.93 386.722 105.321 384.907 106.104 383.646C106.887 382.386 108.019 381.755 109.5 381.755ZM106.419 389.091C106.419 390.782 106.572 392.105 106.88 393.061L111.533 383.854C111.044 383.203 110.366 382.878 109.5 382.878C108.536 382.878 107.781 383.39 107.236 384.415C106.691 385.427 106.419 386.985 106.419 389.091ZM109.5 395.305C110.478 395.305 111.24 394.8 111.785 393.788C112.33 392.763 112.602 391.197 112.602 389.091C112.602 387.304 112.428 385.919 112.078 384.935L107.425 394.225C107.928 394.945 108.62 395.305 109.5 395.305Z" fill="url(#paint36_linear_175_198)" fill-opacity="0.6"/>
<path d="M110.758 418.89H113.839V419.992H105.853V418.89H109.416V407.21L106.02 409.226L105.433 408.291L109.626 405.714H110.758V418.89Z" fill="url(#paint37_linear_175_198)" fill-opacity="0.6"/>
<path d="M110.758 442.641H113.839V443.743H105.853V442.641H109.416V430.962L106.02 432.977L105.433 432.042L109.626 429.465H110.758V442.641Z" fill="url(#paint38_linear_175_198)" fill-opacity="0.6"/>
<path d="M109.5 453.008C110.995 453.008 112.127 453.639 112.896 454.9C113.679 456.147 114.07 457.962 114.07 460.345C114.07 462.728 113.679 464.549 112.896 465.81C112.127 467.071 110.995 467.701 109.5 467.701C108.019 467.701 106.887 467.071 106.104 465.81C105.321 464.549 104.93 462.728 104.93 460.345C104.93 457.975 105.321 456.16 106.104 454.9C106.887 453.639 108.019 453.008 109.5 453.008ZM106.419 460.345C106.419 462.035 106.572 463.358 106.88 464.314L111.533 455.107C111.044 454.456 110.366 454.131 109.5 454.131C108.536 454.131 107.781 454.643 107.236 455.669C106.691 456.68 106.419 458.239 106.419 460.345ZM109.5 466.558C110.478 466.558 111.24 466.053 111.785 465.041C112.33 464.016 112.602 462.451 112.602 460.345C112.602 458.557 112.428 457.172 112.078 456.188L107.425 465.478C107.928 466.198 108.62 466.558 109.5 466.558Z" fill="url(#paint39_linear_175_198)" fill-opacity="0.6"/>
<path d="M110.758 490.143H113.839V491.245H105.853V490.143H109.416V478.464L106.02 480.48L105.433 479.544L109.626 476.967H110.758V490.143Z" fill="url(#paint40_linear_175_198)" fill-opacity="0.6"/>
<path d="M109.5 500.511C110.995 500.511 112.127 501.141 112.896 502.402C113.679 503.649 114.07 505.464 114.07 507.847C114.07 510.23 113.679 512.052 112.896 513.312C112.127 514.573 110.995 515.204 109.5 515.204C108.019 515.204 106.887 514.573 106.104 513.312C105.321 512.052 104.93 510.23 104.93 507.847C104.93 505.478 105.321 503.663 106.104 502.402C106.887 501.141 108.019 500.511 109.5 500.511ZM106.419 507.847C106.419 509.537 106.572 510.86 106.88 511.816L111.533 502.61C111.044 501.958 110.366 501.633 109.5 501.633C108.536 501.633 107.781 502.145 107.236 503.171C106.691 504.182 106.419 505.741 106.419 507.847ZM109.5 514.061C110.478 514.061 111.24 513.555 111.785 512.543C112.33 511.518 112.602 509.953 112.602 507.847C112.602 506.059 112.428 504.674 112.078 503.69L107.425 512.98C107.928 513.7 108.62 514.061 109.5 514.061Z" fill="url(#paint41_linear_175_198)" fill-opacity="0.6"/>
<path d="M148.43 286.751C149.926 286.751 151.057 287.381 151.826 288.642C152.609 289.889 153 291.704 153 294.087C153 296.47 152.609 298.292 151.826 299.553C151.057 300.814 149.926 301.444 148.43 301.444C146.949 301.444 145.817 300.814 145.034 299.553C144.252 298.292 143.86 296.47 143.86 294.087C143.86 291.718 144.252 289.903 145.034 288.642C145.817 287.381 146.949 286.751 148.43 286.751ZM145.349 294.087C145.349 295.777 145.502 297.101 145.81 298.057L150.464 288.85C149.974 288.199 149.297 287.873 148.43 287.873C147.466 287.873 146.711 288.386 146.166 289.411C145.621 290.423 145.349 291.981 145.349 294.087ZM148.43 300.301C149.408 300.301 150.17 299.795 150.715 298.784C151.26 297.759 151.533 296.193 151.533 294.087C151.533 292.3 151.358 290.914 151.009 289.931L146.355 299.22C146.858 299.941 147.55 300.301 148.43 300.301Z" fill="url(#paint42_linear_175_198)" fill-opacity="0.6"/>
<path d="M149.688 323.886H152.769V324.987H144.783V323.886H148.346V312.206L144.95 314.222L144.363 313.287L148.556 310.71H149.688V323.886Z" fill="url(#paint43_linear_175_198)" fill-opacity="0.6"/>
<path d="M149.688 347.637H152.769V348.738H144.783V347.637H148.346V335.957L144.95 337.973L144.363 337.038L148.556 334.461H149.688V347.637Z" fill="url(#paint44_linear_175_198)" fill-opacity="0.6"/>
<path d="M148.43 358.004C149.926 358.004 151.057 358.635 151.826 359.895C152.609 361.142 153 362.957 153 365.34C153 367.723 152.609 369.545 151.826 370.806C151.057 372.067 149.926 372.697 148.43 372.697C146.949 372.697 145.817 372.067 145.034 370.806C144.252 369.545 143.86 367.723 143.86 365.34C143.86 362.971 144.252 361.156 145.034 359.895C145.817 358.635 146.949 358.004 148.43 358.004ZM145.349 365.34C145.349 367.031 145.502 368.354 145.81 369.31L150.464 360.103C149.974 359.452 149.297 359.126 148.43 359.126C147.466 359.126 146.711 359.639 146.166 360.664C145.621 361.676 145.349 363.234 145.349 365.34ZM148.43 371.554C149.408 371.554 150.17 371.049 150.715 370.037C151.26 369.012 151.533 367.446 151.533 365.34C151.533 363.553 151.358 362.168 151.009 361.184L146.355 370.474C146.858 371.194 147.55 371.554 148.43 371.554Z" fill="url(#paint45_linear_175_198)" fill-opacity="0.6"/>
<path d="M148.43 381.755C149.926 381.755 151.057 382.386 151.826 383.646C152.609 384.893 153 386.708 153 389.091C153 391.474 152.609 393.296 151.826 394.557C151.057 395.818 149.926 396.448 148.43 396.448C146.949 396.448 145.817 395.818 145.034 394.557C144.252 393.296 143.86 391.474 143.86 389.091C143.86 386.722 144.252 384.907 145.034 383.646C145.817 382.386 146.949 381.755 148.43 381.755ZM145.349 389.091C145.349 390.782 145.502 392.105 145.81 393.061L150.464 383.854C149.974 383.203 149.297 382.878 148.43 382.878C147.466 382.878 146.711 383.39 146.166 384.415C145.621 385.427 145.349 386.985 145.349 389.091ZM148.43 395.305C149.408 395.305 150.17 394.8 150.715 393.788C151.26 392.763 151.533 391.197 151.533 389.091C151.533 387.304 151.358 385.919 151.009 384.935L146.355 394.225C146.858 394.945 147.55 395.305 148.43 395.305Z" fill="url(#paint46_linear_175_198)" fill-opacity="0.6"/>
<g opacity="0.6">
<path d="M976.93 -37C978.356 -37 979.436 -36.395 980.17 -35.1851C980.916 -33.9885 981.29 -32.2468 981.29 -29.9599C981.29 -27.673 980.916 -25.9246 980.17 -24.7147C979.436 -23.5048 978.356 -22.8998 976.93 -22.8998C975.517 -22.8998 974.437 -23.5048 973.69 -24.7147C972.943 -25.9246 972.57 -27.673 972.57 -29.9599C972.57 -32.2335 972.943 -33.9752 973.69 -35.1851C974.437 -36.395 975.517 -37 976.93 -37ZM973.99 -29.9599C973.99 -28.3378 974.137 -27.068 974.43 -26.1506L978.87 -34.9857C978.403 -35.6106 977.756 -35.923 976.93 -35.923C976.01 -35.923 975.29 -35.4311 974.77 -34.4472C974.25 -33.4766 973.99 -31.9808 973.99 -29.9599ZM976.93 -23.9967C977.863 -23.9967 978.59 -24.482 979.11 -25.4526C979.63 -26.4365 979.89 -27.9389 979.89 -29.9599C979.89 -31.675 979.723 -33.0046 979.39 -33.9486L974.95 -25.0338C975.43 -24.3424 976.09 -23.9967 976.93 -23.9967Z" fill="url(#paint47_linear_175_198)"/>
<path d="M978.13 -1.36345H981.07V-0.306438H973.45V-1.36345H976.85V-12.5718L973.61 -10.6373L973.05 -11.5347L977.05 -14.0078H978.13V-1.36345Z" fill="url(#paint48_linear_175_198)"/>
<path d="M976.93 8.58561C978.356 8.58561 979.436 9.19057 980.17 10.4005C980.916 11.5971 981.29 13.3389 981.29 15.6257C981.29 17.9126 980.916 19.661 980.17 20.8709C979.436 22.0808 978.356 22.6858 976.93 22.6858C975.517 22.6858 974.437 22.0808 973.69 20.8709C972.943 19.661 972.57 17.9126 972.57 15.6257C972.57 13.3522 972.943 11.6104 973.69 10.4005C974.437 9.19057 975.517 8.58561 976.93 8.58561ZM973.99 15.6257C973.99 17.2478 974.137 18.5176 974.43 19.435L978.87 10.5999C978.403 9.97502 977.756 9.66256 976.93 9.66256C976.01 9.66256 975.29 10.1545 974.77 11.1384C974.25 12.109 973.99 13.6048 973.99 15.6257ZM976.93 21.5889C977.863 21.5889 978.59 21.1036 979.11 20.133C979.63 19.1491 979.89 17.6467 979.89 15.6257C979.89 13.9106 979.723 12.581 979.39 11.637L974.95 20.5518C975.43 21.2432 976.09 21.5889 976.93 21.5889Z" fill="url(#paint49_linear_175_198)"/>
<path d="M978.13 44.2221H981.07V45.2792H973.45V44.2221H976.85V33.0138L973.61 34.9483L973.05 34.0509L977.05 31.5778H978.13V44.2221Z" fill="url(#paint50_linear_175_198)"/>
<path d="M978.13 67.015H981.07V68.072H973.45V67.015H976.85V55.8066L973.61 57.7411L973.05 56.8437L977.05 54.3706H978.13V67.015Z" fill="url(#paint51_linear_175_198)"/>
<path d="M976.93 76.964C978.356 76.964 979.436 77.569 980.17 78.7789C980.916 79.9755 981.29 81.7173 981.29 84.0041C981.29 86.291 980.916 88.0394 980.17 89.2493C979.436 90.4593 978.356 91.0642 976.93 91.0642C975.517 91.0642 974.437 90.4593 973.69 89.2493C972.943 88.0394 972.57 86.291 972.57 84.0041C972.57 81.7306 972.943 79.9888 973.69 78.7789C974.437 77.569 975.517 76.964 976.93 76.964ZM973.99 84.0041C973.99 85.6262 974.137 86.896 974.43 87.8134L978.87 78.9783C978.403 78.3534 977.756 78.041 976.93 78.041C976.01 78.041 975.29 78.5329 974.77 79.5168C974.25 80.4874 973.99 81.9832 973.99 84.0041ZM976.93 89.9673C977.863 89.9673 978.59 89.482 979.11 88.5114C979.63 87.5275 979.89 86.0251 979.89 84.0041C979.89 82.289 979.723 80.9594 979.39 80.0154L974.95 88.9302C975.43 89.6216 976.09 89.9673 976.93 89.9673Z" fill="url(#paint52_linear_175_198)"/>
<path d="M978.13 112.601H981.07V113.658H973.45V112.601H976.85V101.392L973.61 103.327L973.05 102.429L977.05 99.9562H978.13V112.601Z" fill="url(#paint53_linear_175_198)"/>
<path d="M976.93 122.55C978.356 122.55 979.436 123.155 980.17 124.365C980.916 125.561 981.29 127.303 981.29 129.59C981.29 131.877 980.916 133.625 980.17 134.835C979.436 136.045 978.356 136.65 976.93 136.65C975.517 136.65 974.437 136.045 973.69 134.835C972.943 133.625 972.57 131.877 972.57 129.59C972.57 127.316 972.943 125.574 973.69 124.365C974.437 123.155 975.517 122.55 976.93 122.55ZM973.99 129.59C973.99 131.212 974.137 132.482 974.43 133.399L978.87 124.564C978.403 123.939 977.756 123.627 976.93 123.627C976.01 123.627 975.29 124.119 974.77 125.102C974.25 126.073 973.99 127.569 973.99 129.59ZM976.93 135.553C977.863 135.553 978.59 135.068 979.11 134.097C979.63 133.113 979.89 131.611 979.89 129.59C979.89 127.875 979.723 126.545 979.39 125.601L974.95 134.516C975.43 135.207 976.09 135.553 976.93 135.553Z" fill="url(#paint54_linear_175_198)"/>
<path d="M976.93 145.342C978.356 145.342 979.436 145.947 980.17 147.157C980.916 148.354 981.29 150.096 981.29 152.383C981.29 154.669 980.916 156.418 980.17 157.628C979.436 158.838 978.356 159.443 976.93 159.443C975.517 159.443 974.437 158.838 973.69 157.628C972.943 156.418 972.57 154.669 972.57 152.383C972.57 150.109 972.943 148.367 973.69 147.157C974.437 145.947 975.517 145.342 976.93 145.342ZM973.99 152.383C973.99 154.005 974.137 155.274 974.43 156.192L978.87 147.357C978.403 146.732 977.756 146.419 976.93 146.419C976.01 146.419 975.29 146.911 974.77 147.895C974.25 148.866 973.99 150.362 973.99 152.383ZM976.93 158.346C977.863 158.346 978.59 157.86 979.11 156.89C979.63 155.906 979.89 154.404 979.89 152.383C979.89 150.667 979.723 149.338 979.39 148.394L974.95 157.309C975.43 158 976.09 158.346 976.93 158.346Z" fill="url(#paint55_linear_175_198)"/>
<path d="M978.13 180.979H981.07V182.036H973.45V180.979H976.85V169.771L973.61 171.705L973.05 170.808L977.05 168.335H978.13V180.979Z" fill="url(#paint56_linear_175_198)"/>
<path d="M976.93 190.928C978.356 190.928 979.436 191.533 980.17 192.743C980.916 193.94 981.29 195.681 981.29 197.968C981.29 200.255 980.916 202.003 980.17 203.213C979.436 204.423 978.356 205.028 976.93 205.028C975.517 205.028 974.437 204.423 973.69 203.213C972.943 202.003 972.57 200.255 972.57 197.968C972.57 195.695 972.943 193.953 973.69 192.743C974.437 191.533 975.517 190.928 976.93 190.928ZM973.99 197.968C973.99 199.59 974.137 200.86 974.43 201.777L978.87 192.942C978.403 192.317 977.756 192.005 976.93 192.005C976.01 192.005 975.29 192.497 974.77 193.481C974.25 194.451 973.99 195.947 973.99 197.968ZM976.93 203.931C977.863 203.931 978.59 203.446 979.11 202.475C979.63 201.492 979.89 199.989 979.89 197.968C979.89 196.253 979.723 194.923 979.39 193.979L974.95 202.894C975.43 203.586 976.09 203.931 976.93 203.931Z" fill="url(#paint57_linear_175_198)"/>
<path d="M978.13 226.565H981.07V227.622H973.45V226.565H976.85V215.356L973.61 217.291L973.05 216.393L977.05 213.92H978.13V226.565Z" fill="url(#paint58_linear_175_198)"/>
<path d="M978.13 249.357H981.07V250.414H973.45V249.357H976.85V238.149L973.61 240.084L973.05 239.186L977.05 236.713H978.13V249.357Z" fill="url(#paint59_linear_175_198)"/>
<path d="M1014.07 8.58561C1015.5 8.58561 1016.58 9.19057 1017.31 10.4005C1018.06 11.5971 1018.43 13.3389 1018.43 15.6257C1018.43 17.9126 1018.06 19.661 1017.31 20.8709C1016.58 22.0808 1015.5 22.6858 1014.07 22.6858C1012.66 22.6858 1011.58 22.0808 1010.83 20.8709C1010.08 19.661 1009.71 17.9126 1009.71 15.6257C1009.71 13.3522 1010.08 11.6104 1010.83 10.4005C1011.58 9.19057 1012.66 8.58561 1014.07 8.58561ZM1011.13 15.6257C1011.13 17.2478 1011.28 18.5176 1011.57 19.435L1016.01 10.5999C1015.54 9.97502 1014.9 9.66256 1014.07 9.66256C1013.15 9.66256 1012.43 10.1545 1011.91 11.1384C1011.39 12.109 1011.13 13.6048 1011.13 15.6257ZM1014.07 21.5889C1015 21.5889 1015.73 21.1036 1016.25 20.133C1016.77 19.1491 1017.03 17.6467 1017.03 15.6257C1017.03 13.9106 1016.86 12.581 1016.53 11.637L1012.09 20.5518C1012.57 21.2432 1013.23 21.5889 1014.07 21.5889Z" fill="url(#paint60_linear_175_198)"/>
<path d="M1015.27 44.2221H1018.21V45.2792H1010.59V44.2221H1013.99V33.0138L1010.75 34.9483L1010.19 34.0509L1014.19 31.5778H1015.27V44.2221Z" fill="url(#paint61_linear_175_198)"/>
<path d="M1014.07 54.1712C1015.5 54.1712 1016.58 54.7762 1017.31 55.9861C1018.06 57.1827 1018.43 58.9245 1018.43 61.2113C1018.43 63.4982 1018.06 65.2466 1017.31 66.4565C1016.58 67.6664 1015.5 68.2714 1014.07 68.2714C1012.66 68.2714 1011.58 67.6664 1010.83 66.4565C1010.08 65.2466 1009.71 63.4982 1009.71 61.2113C1009.71 58.9378 1010.08 57.196 1010.83 55.9861C1011.58 54.7762 1012.66 54.1712 1014.07 54.1712ZM1011.13 61.2113C1011.13 62.8334 1011.28 64.1032 1011.57 65.0206L1016.01 56.1855C1015.54 55.5606 1014.9 55.2482 1014.07 55.2482C1013.15 55.2482 1012.43 55.7401 1011.91 56.724C1011.39 57.6946 1011.13 59.1904 1011.13 61.2113ZM1014.07 67.1745C1015 67.1745 1015.73 66.6892 1016.25 65.7186C1016.77 64.7347 1017.03 63.2323 1017.03 61.2113C1017.03 59.4962 1016.86 58.1666 1016.53 57.2226L1012.09 66.1374C1012.57 66.8288 1013.23 67.1745 1014.07 67.1745Z" fill="url(#paint62_linear_175_198)"/>
<path d="M1014.07 76.964C1015.5 76.964 1016.58 77.569 1017.31 78.7789C1018.06 79.9755 1018.43 81.7173 1018.43 84.0041C1018.43 86.291 1018.06 88.0394 1017.31 89.2493C1016.58 90.4593 1015.5 91.0642 1014.07 91.0642C1012.66 91.0642 1011.58 90.4593 1010.83 89.2493C1010.08 88.0394 1009.71 86.291 1009.71 84.0041C1009.71 81.7306 1010.08 79.9888 1010.83 78.7789C1011.58 77.569 1012.66 76.964 1014.07 76.964ZM1011.13 84.0041C1011.13 85.6262 1011.28 86.896 1011.57 87.8134L1016.01 78.9783C1015.54 78.3534 1014.9 78.041 1014.07 78.041C1013.15 78.041 1012.43 78.5329 1011.91 79.5168C1011.39 80.4874 1011.13 81.9832 1011.13 84.0041ZM1014.07 89.9673C1015 89.9673 1015.73 89.482 1016.25 88.5114C1016.77 87.5275 1017.03 86.0251 1017.03 84.0041C1017.03 82.289 1016.86 80.9594 1016.53 80.0154L1012.09 88.9302C1012.57 89.6216 1013.23 89.9673 1014.07 89.9673Z" fill="url(#paint63_linear_175_198)"/>
<path d="M1015.27 112.601H1018.21V113.658H1010.59V112.601H1013.99V101.392L1010.75 103.327L1010.19 102.429L1014.19 99.9562H1015.27V112.601Z" fill="url(#paint64_linear_175_198)"/>
<path d="M1014.07 122.55C1015.5 122.55 1016.58 123.155 1017.31 124.365C1018.06 125.561 1018.43 127.303 1018.43 129.59C1018.43 131.877 1018.06 133.625 1017.31 134.835C1016.58 136.045 1015.5 136.65 1014.07 136.65C1012.66 136.65 1011.58 136.045 1010.83 134.835C1010.08 133.625 1009.71 131.877 1009.71 129.59C1009.71 127.316 1010.08 125.574 1010.83 124.365C1011.58 123.155 1012.66 122.55 1014.07 122.55ZM1011.13 129.59C1011.13 131.212 1011.28 132.482 1011.57 133.399L1016.01 124.564C1015.54 123.939 1014.9 123.627 1014.07 123.627C1013.15 123.627 1012.43 124.119 1011.91 125.102C1011.39 126.073 1011.13 127.569 1011.13 129.59ZM1014.07 135.553C1015 135.553 1015.73 135.068 1016.25 134.097C1016.77 133.113 1017.03 131.611 1017.03 129.59C1017.03 127.875 1016.86 126.545 1016.53 125.601L1012.09 134.516C1012.57 135.207 1013.23 135.553 1014.07 135.553Z" fill="url(#paint65_linear_175_198)"/>
<path d="M1015.27 158.186H1018.21V159.243H1010.59V158.186H1013.99V146.978L1010.75 148.912L1010.19 148.015L1014.19 145.542H1015.27V158.186Z" fill="url(#paint66_linear_175_198)"/>
<path d="M1014.07 168.135C1015.5 168.135 1016.58 168.74 1017.31 169.95C1018.06 171.147 1018.43 172.888 1018.43 175.175C1018.43 177.462 1018.06 179.211 1017.31 180.421C1016.58 181.63 1015.5 182.235 1014.07 182.235C1012.66 182.235 1011.58 181.63 1010.83 180.421C1010.08 179.211 1009.71 177.462 1009.71 175.175C1009.71 172.902 1010.08 171.16 1010.83 169.95C1011.58 168.74 1012.66 168.135 1014.07 168.135ZM1011.13 175.175C1011.13 176.797 1011.28 178.067 1011.57 178.985L1016.01 170.15C1015.54 169.525 1014.9 169.212 1014.07 169.212C1013.15 169.212 1012.43 169.704 1011.91 170.688C1011.39 171.659 1011.13 173.154 1011.13 175.175ZM1014.07 181.139C1015 181.139 1015.73 180.653 1016.25 179.683C1016.77 178.699 1017.03 177.196 1017.03 175.175C1017.03 173.46 1016.86 172.131 1016.53 171.187L1012.09 180.101C1012.57 180.793 1013.23 181.139 1014.07 181.139Z" fill="url(#paint67_linear_175_198)"/>
<path d="M1014.07 190.928C1015.5 190.928 1016.58 191.533 1017.31 192.743C1018.06 193.94 1018.43 195.681 1018.43 197.968C1018.43 200.255 1018.06 202.003 1017.31 203.213C1016.58 204.423 1015.5 205.028 1014.07 205.028C1012.66 205.028 1011.58 204.423 1010.83 203.213C1010.08 202.003 1009.71 200.255 1009.71 197.968C1009.71 195.695 1010.08 193.953 1010.83 192.743C1011.58 191.533 1012.66 190.928 1014.07 190.928ZM1011.13 197.968C1011.13 199.59 1011.28 200.86 1011.57 201.777L1016.01 192.942C1015.54 192.317 1014.9 192.005 1014.07 192.005C1013.15 192.005 1012.43 192.497 1011.91 193.481C1011.39 194.451 1011.13 195.947 1011.13 197.968ZM1014.07 203.931C1015 203.931 1015.73 203.446 1016.25 202.475C1016.77 201.492 1017.03 199.989 1017.03 197.968C1017.03 196.253 1016.86 194.923 1016.53 193.979L1012.09 202.894C1012.57 203.586 1013.23 203.931 1014.07 203.931Z" fill="url(#paint68_linear_175_198)"/>
<path d="M1015.27 226.565H1018.21V227.622H1010.59V226.565H1013.99V215.356L1010.75 217.291L1010.19 216.393L1014.19 213.92H1015.27V226.565Z" fill="url(#paint69_linear_175_198)"/>
<path d="M1014.07 236.514C1015.5 236.514 1016.58 237.119 1017.31 238.329C1018.06 239.525 1018.43 241.267 1018.43 243.554C1018.43 245.841 1018.06 247.589 1017.31 248.799C1016.58 250.009 1015.5 250.614 1014.07 250.614C1012.66 250.614 1011.58 250.009 1010.83 248.799C1010.08 247.589 1009.71 245.841 1009.71 243.554C1009.71 241.28 1010.08 239.538 1010.83 238.329C1011.58 237.119 1012.66 236.514 1014.07 236.514ZM1011.13 243.554C1011.13 245.176 1011.28 246.446 1011.57 247.363L1016.01 238.528C1015.54 237.903 1014.9 237.591 1014.07 237.591C1013.15 237.591 1012.43 238.083 1011.91 239.066C1011.39 240.037 1011.13 241.533 1011.13 243.554ZM1014.07 249.517C1015 249.517 1015.73 249.032 1016.25 248.061C1016.77 247.077 1017.03 245.575 1017.03 243.554C1017.03 241.839 1016.86 240.509 1016.53 239.565L1012.09 248.48C1012.57 249.171 1013.23 249.517 1014.07 249.517Z" fill="url(#paint70_linear_175_198)"/>
<path d="M1015.27 272.15H1018.21V273.207H1010.59V272.15H1013.99V260.942L1010.75 262.876L1010.19 261.979L1014.19 259.506H1015.27V272.15Z" fill="url(#paint71_linear_175_198)"/>
<path d="M1015.27 294.943H1018.21V296H1010.59V294.943H1013.99V283.735L1010.75 285.669L1010.19 284.772L1014.19 282.299H1015.27V294.943Z" fill="url(#paint72_linear_175_198)"/>
<path d="M958.36 31.3784C959.786 31.3784 960.866 31.9834 961.599 33.1933C962.346 34.3899 962.719 36.1317 962.719 38.4185C962.719 40.7054 962.346 42.4538 961.599 43.6637C960.866 44.8736 959.786 45.4786 958.36 45.4786C956.946 45.4786 955.867 44.8736 955.12 43.6637C954.373 42.4538 954 40.7054 954 38.4185C954 36.145 954.373 34.4032 955.12 33.1933C955.867 31.9834 956.946 31.3784 958.36 31.3784ZM955.42 38.4185C955.42 40.0406 955.567 41.3104 955.86 42.2278L960.3 33.3927C959.833 32.7678 959.186 32.4554 958.36 32.4554C957.44 32.4554 956.72 32.9473 956.2 33.9312C955.68 34.9018 955.42 36.3976 955.42 38.4185ZM958.36 44.3817C959.293 44.3817 960.02 43.8964 960.54 42.9258C961.06 41.9419 961.319 40.4395 961.319 38.4185C961.319 36.7034 961.153 35.3738 960.82 34.4298L956.38 43.3446C956.86 44.036 957.52 44.3817 958.36 44.3817Z" fill="url(#paint73_linear_175_198)"/>
<path d="M958.36 54.1712C959.786 54.1712 960.866 54.7762 961.599 55.9861C962.346 57.1827 962.719 58.9245 962.719 61.2113C962.719 63.4982 962.346 65.2466 961.599 66.4565C960.866 67.6664 959.786 68.2714 958.36 68.2714C956.946 68.2714 955.867 67.6664 955.12 66.4565C954.373 65.2466 954 63.4982 954 61.2113C954 58.9378 954.373 57.196 955.12 55.9861C955.867 54.7762 956.946 54.1712 958.36 54.1712ZM955.42 61.2113C955.42 62.8334 955.567 64.1032 955.86 65.0206L960.3 56.1855C959.833 55.5606 959.186 55.2482 958.36 55.2482C957.44 55.2482 956.72 55.7401 956.2 56.724C955.68 57.6946 955.42 59.1904 955.42 61.2113ZM958.36 67.1745C959.293 67.1745 960.02 66.6892 960.54 65.7186C961.06 64.7347 961.319 63.2323 961.319 61.2113C961.319 59.4962 961.153 58.1666 960.82 57.2226L956.38 66.1374C956.86 66.8288 957.52 67.1745 958.36 67.1745Z" fill="url(#paint74_linear_175_198)"/>
<path d="M959.56 89.8078H962.499V90.8648H954.88V89.8078H958.28V78.5994L955.04 80.5339L954.48 79.6365L958.48 77.1635H959.56V89.8078Z" fill="url(#paint75_linear_175_198)"/>
<path d="M958.36 99.7568C959.786 99.7568 960.866 100.362 961.599 101.572C962.346 102.768 962.719 104.51 962.719 106.797C962.719 109.084 962.346 110.832 961.599 112.042C960.866 113.252 959.786 113.857 958.36 113.857C956.946 113.857 955.867 113.252 955.12 112.042C954.373 110.832 954 109.084 954 106.797C954 104.523 954.373 102.782 955.12 101.572C955.867 100.362 956.946 99.7568 958.36 99.7568ZM955.42 106.797C955.42 108.419 955.567 109.689 955.86 110.606L960.3 101.771C959.833 101.146 959.186 100.834 958.36 100.834C957.44 100.834 956.72 101.326 956.2 102.31C955.68 103.28 955.42 104.776 955.42 106.797ZM958.36 112.76C959.293 112.76 960.02 112.275 960.54 111.304C961.06 110.32 961.319 108.818 961.319 106.797C961.319 105.082 961.153 103.752 960.82 102.808L956.38 111.723C956.86 112.414 957.52 112.76 958.36 112.76Z" fill="url(#paint76_linear_175_198)"/>
<path d="M959.56 135.393H962.499V136.45H954.88V135.393H958.28V124.185L955.04 126.12L954.48 125.222L958.48 122.749H959.56V135.393Z" fill="url(#paint77_linear_175_198)"/>
<path d="M959.56 158.186H962.499V159.243H954.88V158.186H958.28V146.978L955.04 148.912L954.48 148.015L958.48 145.542H959.56V158.186Z" fill="url(#paint78_linear_175_198)"/>
<path d="M996.7 -1.36345H999.64V-0.306438H992.02V-1.36345H995.42V-12.5718L992.18 -10.6373L991.62 -11.5347L995.62 -14.0078H996.7V-1.36345Z" fill="url(#paint79_linear_175_198)"/>
<path d="M995.5 8.58561C996.927 8.58561 998.006 9.19057 998.74 10.4005C999.486 11.5971 999.86 13.3389 999.86 15.6257C999.86 17.9126 999.486 19.661 998.74 20.8709C998.006 22.0808 996.927 22.6858 995.5 22.6858C994.087 22.6858 993.007 22.0808 992.26 20.8709C991.514 19.661 991.14 17.9126 991.14 15.6257C991.14 13.3522 991.514 11.6104 992.26 10.4005C993.007 9.19057 994.087 8.58561 995.5 8.58561ZM992.56 15.6257C992.56 17.2478 992.707 18.5176 993 19.435L997.44 10.5999C996.973 9.97502 996.327 9.66256 995.5 9.66256C994.58 9.66256 993.86 10.1545 993.34 11.1384C992.82 12.109 992.56 13.6048 992.56 15.6257ZM995.5 21.5889C996.433 21.5889 997.16 21.1036 997.68 20.133C998.2 19.1491 998.46 17.6467 998.46 15.6257C998.46 13.9106 998.293 12.581 997.96 11.637L993.52 20.5518C994 21.2432 994.66 21.5889 995.5 21.5889Z" fill="url(#paint80_linear_175_198)"/>
<path d="M996.7 44.2221H999.64V45.2792H992.02V44.2221H995.42V33.0138L992.18 34.9483L991.62 34.0509L995.62 31.5778H996.7V44.2221Z" fill="url(#paint81_linear_175_198)"/>
<path d="M996.7 67.015H999.64V68.072H992.02V67.015H995.42V55.8066L992.18 57.7411L991.62 56.8437L995.62 54.3706H996.7V67.015Z" fill="url(#paint82_linear_175_198)"/>
<path d="M995.5 76.964C996.927 76.964 998.006 77.569 998.74 78.7789C999.486 79.9755 999.86 81.7173 999.86 84.0041C999.86 86.291 999.486 88.0394 998.74 89.2493C998.006 90.4593 996.927 91.0642 995.5 91.0642C994.087 91.0642 993.007 90.4593 992.26 89.2493C991.514 88.0394 991.14 86.291 991.14 84.0041C991.14 81.7306 991.514 79.9888 992.26 78.7789C993.007 77.569 994.087 76.964 995.5 76.964ZM992.56 84.0041C992.56 85.6262 992.707 86.896 993 87.8134L997.44 78.9783C996.973 78.3534 996.327 78.041 995.5 78.041C994.58 78.041 993.86 78.5329 993.34 79.5168C992.82 80.4874 992.56 81.9832 992.56 84.0041ZM995.5 89.9673C996.433 89.9673 997.16 89.482 997.68 88.5114C998.2 87.5275 998.46 86.0251 998.46 84.0041C998.46 82.289 998.293 80.9594 997.96 80.0154L993.52 88.9302C994 89.6216 994.66 89.9673 995.5 89.9673Z" fill="url(#paint83_linear_175_198)"/>
<path d="M996.7 112.601H999.64V113.658H992.02V112.601H995.42V101.392L992.18 103.327L991.62 102.429L995.62 99.9562H996.7V112.601Z" fill="url(#paint84_linear_175_198)"/>
<path d="M996.7 135.393H999.64V136.45H992.02V135.393H995.42V124.185L992.18 126.12L991.62 125.222L995.62 122.749H996.7V135.393Z" fill="url(#paint85_linear_175_198)"/>
<path d="M995.5 145.342C996.927 145.342 998.006 145.947 998.74 147.157C999.486 148.354 999.86 150.096 999.86 152.383C999.86 154.669 999.486 156.418 998.74 157.628C998.006 158.838 996.927 159.443 995.5 159.443C994.087 159.443 993.007 158.838 992.26 157.628C991.514 156.418 991.14 154.669 991.14 152.383C991.14 150.109 991.514 148.367 992.26 147.157C993.007 145.947 994.087 145.342 995.5 145.342ZM992.56 152.383C992.56 154.005 992.707 155.274 993 156.192L997.44 147.357C996.973 146.732 996.327 146.419 995.5 146.419C994.58 146.419 993.86 146.911 993.34 147.895C992.82 148.866 992.56 150.362 992.56 152.383ZM995.5 158.346C996.433 158.346 997.16 157.86 997.68 156.89C998.2 155.906 998.46 154.404 998.46 152.383C998.46 150.667 998.293 149.338 997.96 148.394L993.52 157.309C994 158 994.66 158.346 995.5 158.346Z" fill="url(#paint86_linear_175_198)"/>
<path d="M996.7 180.979H999.64V182.036H992.02V180.979H995.42V169.771L992.18 171.705L991.62 170.808L995.62 168.335H996.7V180.979Z" fill="url(#paint87_linear_175_198)"/>
<path d="M995.5 190.928C996.927 190.928 998.006 191.533 998.74 192.743C999.486 193.94 999.86 195.681 999.86 197.968C999.86 200.255 999.486 202.003 998.74 203.213C998.006 204.423 996.927 205.028 995.5 205.028C994.087 205.028 993.007 204.423 992.26 203.213C991.514 202.003 991.14 200.255 991.14 197.968C991.14 195.695 991.514 193.953 992.26 192.743C993.007 191.533 994.087 190.928 995.5 190.928ZM992.56 197.968C992.56 199.59 992.707 200.86 993 201.777L997.44 192.942C996.973 192.317 996.327 192.005 995.5 192.005C994.58 192.005 993.86 192.497 993.34 193.481C992.82 194.451 992.56 195.947 992.56 197.968ZM995.5 203.931C996.433 203.931 997.16 203.446 997.68 202.475C998.2 201.492 998.46 199.989 998.46 197.968C998.46 196.253 998.293 194.923 997.96 193.979L993.52 202.894C994 203.586 994.66 203.931 995.5 203.931Z" fill="url(#paint88_linear_175_198)"/>
<path d="M1032.64 -14.2072C1034.07 -14.2072 1035.15 -13.6022 1035.88 -12.3923C1036.63 -11.1957 1037 -9.45395 1037 -7.16707C1037 -4.88019 1036.63 -3.13179 1035.88 -1.92188C1035.15 -0.711958 1034.07 -0.106999 1032.64 -0.106999C1031.23 -0.106999 1030.15 -0.711958 1029.4 -1.92188C1028.65 -3.13179 1028.28 -4.88019 1028.28 -7.16707C1028.28 -9.44065 1028.65 -11.1824 1029.4 -12.3923C1030.15 -13.6022 1031.23 -14.2072 1032.64 -14.2072ZM1029.7 -7.16707C1029.7 -5.54498 1029.85 -4.27523 1030.14 -3.35782L1034.58 -12.1929C1034.11 -12.8178 1033.47 -13.1302 1032.64 -13.1302C1031.72 -13.1302 1031 -12.6383 1030.48 -11.6544C1029.96 -10.6838 1029.7 -9.18803 1029.7 -7.16707ZM1032.64 -1.2039C1033.57 -1.2039 1034.3 -1.6892 1034.82 -2.65979C1035.34 -3.64368 1035.6 -5.14611 1035.6 -7.16707C1035.6 -8.88223 1035.43 -10.2118 1035.1 -11.1558L1030.66 -2.24098C1031.14 -1.5496 1031.8 -1.2039 1032.64 -1.2039Z" fill="url(#paint89_linear_175_198)"/>
<path d="M1033.84 21.4293H1036.78V22.4864H1029.16V21.4293H1032.56V10.221L1029.32 12.1555L1028.76 11.2581L1032.76 8.78504H1033.84V21.4293Z" fill="url(#paint90_linear_175_198)"/>
<path d="M1033.84 44.2221H1036.78V45.2792H1029.16V44.2221H1032.56V33.0138L1029.32 34.9483L1028.76 34.0509L1032.76 31.5778H1033.84V44.2221Z" fill="url(#paint91_linear_175_198)"/>
<path d="M1032.64 54.1712C1034.07 54.1712 1035.15 54.7762 1035.88 55.9861C1036.63 57.1827 1037 58.9245 1037 61.2113C1037 63.4982 1036.63 65.2466 1035.88 66.4565C1035.15 67.6664 1034.07 68.2714 1032.64 68.2714C1031.23 68.2714 1030.15 67.6664 1029.4 66.4565C1028.65 65.2466 1028.28 63.4982 1028.28 61.2113C1028.28 58.9378 1028.65 57.196 1029.4 55.9861C1030.15 54.7762 1031.23 54.1712 1032.64 54.1712ZM1029.7 61.2113C1029.7 62.8334 1029.85 64.1032 1030.14 65.0206L1034.58 56.1855C1034.11 55.5606 1033.47 55.2482 1032.64 55.2482C1031.72 55.2482 1031 55.7401 1030.48 56.724C1029.96 57.6946 1029.7 59.1904 1029.7 61.2113ZM1032.64 67.1745C1033.57 67.1745 1034.3 66.6892 1034.82 65.7186C1035.34 64.7347 1035.6 63.2323 1035.6 61.2113C1035.6 59.4962 1035.43 58.1666 1035.1 57.2226L1030.66 66.1374C1031.14 66.8288 1031.8 67.1745 1032.64 67.1745Z" fill="url(#paint92_linear_175_198)"/>
<path d="M1032.64 76.964C1034.07 76.964 1035.15 77.569 1035.88 78.7789C1036.63 79.9755 1037 81.7173 1037 84.0041C1037 86.291 1036.63 88.0394 1035.88 89.2493C1035.15 90.4593 1034.07 91.0642 1032.64 91.0642C1031.23 91.0642 1030.15 90.4593 1029.4 89.2493C1028.65 88.0394 1028.28 86.291 1028.28 84.0041C1028.28 81.7306 1028.65 79.9888 1029.4 78.7789C1030.15 77.569 1031.23 76.964 1032.64 76.964ZM1029.7 84.0041C1029.7 85.6262 1029.85 86.896 1030.14 87.8134L1034.58 78.9783C1034.11 78.3534 1033.47 78.041 1032.64 78.041C1031.72 78.041 1031 78.5329 1030.48 79.5168C1029.96 80.4874 1029.7 81.9832 1029.7 84.0041ZM1032.64 89.9673C1033.57 89.9673 1034.3 89.482 1034.82 88.5114C1035.34 87.5275 1035.6 86.0251 1035.6 84.0041C1035.6 82.289 1035.43 80.9594 1035.1 80.0154L1030.66 88.9302C1031.14 89.6216 1031.8 89.9673 1032.64 89.9673Z" fill="url(#paint93_linear_175_198)"/>
</g>
<defs>
<filter id="filter0_f_175_198" x="-501.19" y="-723.19" width="2141.38" height="1500.38" filterUnits="userSpaceOnUse" color-interpolation-filters="sRGB">
<feFlood flood-opacity="0" result="BackgroundImageFix"/>
<feBlend mode="normal" in="SourceGraphic" in2="BackgroundImageFix" result="shape"/>
<feGaussianBlur stdDeviation="200.095" result="effect1_foregroundBlur_175_198"/>
</filter>
<linearGradient id="paint0_linear_175_198" x1="109.5" y1="263" x2="109.5" y2="574.381" gradientUnits="userSpaceOnUse">
<stop stop-color="#F7DD43"/>
<stop offset="1" stop-color="#F7DD43" stop-opacity="0"/>
</linearGradient>
<linearGradient id="paint1_linear_175_198" x1="109.5" y1="263" x2="109.5" y2="574.381" gradientUnits="userSpaceOnUse">
<stop stop-color="#F7DD43"/>
<stop offset="1" stop-color="#F7DD43" stop-opacity="0"/>
</linearGradient>
<linearGradient id="paint2_linear_175_198" x1="109.5" y1="263" x2="109.5" y2="574.381" gradientUnits="userSpaceOnUse">
<stop stop-color="#F7DD43"/>
<stop offset="1" stop-color="#F7DD43" stop-opacity="0"/>
</linearGradient>
<linearGradient id="paint3_linear_175_198" x1="109.5" y1="263" x2="109.5" y2="574.381" gradientUnits="userSpaceOnUse">
<stop stop-color="#F7DD43"/>
<stop offset="1" stop-color="#F7DD43" stop-opacity="0"/>
</linearGradient>
<linearGradient id="paint4_linear_175_198" x1="109.5" y1="263" x2="109.5" y2="574.381" gradientUnits="userSpaceOnUse">
<stop stop-color="#F7DD43"/>
<stop offset="1" stop-color="#F7DD43" stop-opacity="0"/>
</linearGradient>
<linearGradient id="paint5_linear_175_198" x1="109.5" y1="263" x2="109.5" y2="574.381" gradientUnits="userSpaceOnUse">
<stop stop-color="#F7DD43"/>
<stop offset="1" stop-color="#F7DD43" stop-opacity="0"/>
</linearGradient>
<linearGradient id="paint6_linear_175_198" x1="109.5" y1="263" x2="109.5" y2="574.381" gradientUnits="userSpaceOnUse">
<stop stop-color="#F7DD43"/>
<stop offset="1" stop-color="#F7DD43" stop-opacity="0"/>
</linearGradient>
<linearGradient id="paint7_linear_175_198" x1="109.5" y1="263" x2="109.5" y2="574.381" gradientUnits="userSpaceOnUse">
<stop stop-color="#F7DD43"/>
<stop offset="1" stop-color="#F7DD43" stop-opacity="0"/>
</linearGradient>
<linearGradient id="paint8_linear_175_198" x1="109.5" y1="263" x2="109.5" y2="574.381" gradientUnits="userSpaceOnUse">
<stop stop-color="#F7DD43"/>
<stop offset="1" stop-color="#F7DD43" stop-opacity="0"/>
</linearGradient>
<linearGradient id="paint9_linear_175_198" x1="109.5" y1="263" x2="109.5" y2="574.381" gradientUnits="userSpaceOnUse">
<stop stop-color="#F7DD43"/>
<stop offset="1" stop-color="#F7DD43" stop-opacity="0"/>
</linearGradient>
<linearGradient id="paint10_linear_175_198" x1="109.5" y1="263" x2="109.5" y2="574.381" gradientUnits="userSpaceOnUse">
<stop stop-color="#F7DD43"/>
<stop offset="1" stop-color="#F7DD43" stop-opacity="0"/>
</linearGradient>
<linearGradient id="paint11_linear_175_198" x1="109.5" y1="263" x2="109.5" y2="574.381" gradientUnits="userSpaceOnUse">
<stop stop-color="#F7DD43"/>
<stop offset="1" stop-color="#F7DD43" stop-opacity="0"/>
</linearGradient>
<linearGradient id="paint12_linear_175_198" x1="109.5" y1="263" x2="109.5" y2="574.381" gradientUnits="userSpaceOnUse">
<stop stop-color="#F7DD43"/>
<stop offset="1" stop-color="#F7DD43" stop-opacity="0"/>
</linearGradient>
<linearGradient id="paint13_linear_175_198" x1="109.5" y1="263" x2="109.5" y2="574.381" gradientUnits="userSpaceOnUse">
<stop stop-color="#F7DD43"/>
<stop offset="1" stop-color="#F7DD43" stop-opacity="0"/>
</linearGradient>
<linearGradient id="paint14_linear_175_198" x1="109.5" y1="263" x2="109.5" y2="574.381" gradientUnits="userSpaceOnUse">
<stop stop-color="#F7DD43"/>
<stop offset="1" stop-color="#F7DD43" stop-opacity="0"/>
</linearGradient>
<linearGradient id="paint15_linear_175_198" x1="109.5" y1="263" x2="109.5" y2="574.381" gradientUnits="userSpaceOnUse">
<stop stop-color="#F7DD43"/>
<stop offset="1" stop-color="#F7DD43" stop-opacity="0"/>
</linearGradient>
<linearGradient id="paint16_linear_175_198" x1="109.5" y1="263" x2="109.5" y2="574.381" gradientUnits="userSpaceOnUse">
<stop stop-color="#F7DD43"/>
<stop offset="1" stop-color="#F7DD43" stop-opacity="0"/>
</linearGradient>
<linearGradient id="paint17_linear_175_198" x1="109.5" y1="263" x2="109.5" y2="574.381" gradientUnits="userSpaceOnUse">
<stop stop-color="#F7DD43"/>
<stop offset="1" stop-color="#F7DD43" stop-opacity="0"/>
</linearGradient>
<linearGradient id="paint18_linear_175_198" x1="109.5" y1="263" x2="109.5" y2="574.381" gradientUnits="userSpaceOnUse">
<stop stop-color="#F7DD43"/>
<stop offset="1" stop-color="#F7DD43" stop-opacity="0"/>
</linearGradient>
<linearGradient id="paint19_linear_175_198" x1="109.5" y1="263" x2="109.5" y2="574.381" gradientUnits="userSpaceOnUse">
<stop stop-color="#F7DD43"/>
<stop offset="1" stop-color="#F7DD43" stop-opacity="0"/>
</linearGradient>
<linearGradient id="paint20_linear_175_198" x1="109.5" y1="263" x2="109.5" y2="574.381" gradientUnits="userSpaceOnUse">
<stop stop-color="#F7DD43"/>
<stop offset="1" stop-color="#F7DD43" stop-opacity="0"/>
</linearGradient>
<linearGradient id="paint21_linear_175_198" x1="109.5" y1="263" x2="109.5" y2="574.381" gradientUnits="userSpaceOnUse">
<stop stop-color="#F7DD43"/>
<stop offset="1" stop-color="#F7DD43" stop-opacity="0"/>
</linearGradient>
<linearGradient id="paint22_linear_175_198" x1="109.5" y1="263" x2="109.5" y2="574.381" gradientUnits="userSpaceOnUse">
<stop stop-color="#F7DD43"/>
<stop offset="1" stop-color="#F7DD43" stop-opacity="0"/>
</linearGradient>
<linearGradient id="paint23_linear_175_198" x1="109.5" y1="263" x2="109.5" y2="574.381" gradientUnits="userSpaceOnUse">
<stop stop-color="#F7DD43"/>
<stop offset="1" stop-color="#F7DD43" stop-opacity="0"/>
</linearGradient>
<linearGradient id="paint24_linear_175_198" x1="109.5" y1="263" x2="109.5" y2="574.381" gradientUnits="userSpaceOnUse">
<stop stop-color="#F7DD43"/>
<stop offset="1" stop-color="#F7DD43" stop-opacity="0"/>
</linearGradient>
<linearGradient id="paint25_linear_175_198" x1="109.5" y1="263" x2="109.5" y2="574.381" gradientUnits="userSpaceOnUse">
<stop stop-color="#F7DD43"/>
<stop offset="1" stop-color="#F7DD43" stop-opacity="0"/>
</linearGradient>
<linearGradient id="paint26_linear_175_198" x1="109.5" y1="263" x2="109.5" y2="574.381" gradientUnits="userSpaceOnUse">
<stop stop-color="#F7DD43"/>
<stop offset="1" stop-color="#F7DD43" stop-opacity="0"/>
</linearGradient>
<linearGradient id="paint27_linear_175_198" x1="109.5" y1="263" x2="109.5" y2="574.381" gradientUnits="userSpaceOnUse">
<stop stop-color="#F7DD43"/>
<stop offset="1" stop-color="#F7DD43" stop-opacity="0"/>
</linearGradient>
<linearGradient id="paint28_linear_175_198" x1="109.5" y1="263" x2="109.5" y2="574.381" gradientUnits="userSpaceOnUse">
<stop stop-color="#F7DD43"/>
<stop offset="1" stop-color="#F7DD43" stop-opacity="0"/>
</linearGradient>
<linearGradient id="paint29_linear_175_198" x1="109.5" y1="263" x2="109.5" y2="574.381" gradientUnits="userSpaceOnUse">
<stop stop-color="#F7DD43"/>
<stop offset="1" stop-color="#F7DD43" stop-opacity="0"/>
</linearGradient>
<linearGradient id="paint30_linear_175_198" x1="109.5" y1="263" x2="109.5" y2="574.381" gradientUnits="userSpaceOnUse">
<stop stop-color="#F7DD43"/>
<stop offset="1" stop-color="#F7DD43" stop-opacity="0"/>
</linearGradient>
<linearGradient id="paint31_linear_175_198" x1="109.5" y1="263" x2="109.5" y2="574.381" gradientUnits="userSpaceOnUse">
<stop stop-color="#F7DD43"/>
<stop offset="1" stop-color="#F7DD43" stop-opacity="0"/>
</linearGradient>
<linearGradient id="paint32_linear_175_198" x1="109.5" y1="263" x2="109.5" y2="574.381" gradientUnits="userSpaceOnUse">
<stop stop-color="#F7DD43"/>
<stop offset="1" stop-color="#F7DD43" stop-opacity="0"/>
</linearGradient>
<linearGradient id="paint33_linear_175_198" x1="109.5" y1="263" x2="109.5" y2="574.381" gradientUnits="userSpaceOnUse">
<stop stop-color="#F7DD43"/>
<stop offset="1" stop-color="#F7DD43" stop-opacity="0"/>
</linearGradient>
<linearGradient id="paint34_linear_175_198" x1="109.5" y1="263" x2="109.5" y2="574.381" gradientUnits="userSpaceOnUse">
<stop stop-color="#F7DD43"/>
<stop offset="1" stop-color="#F7DD43" stop-opacity="0"/>
</linearGradient>
<linearGradient id="paint35_linear_175_198" x1="109.5" y1="263" x2="109.5" y2="574.381" gradientUnits="userSpaceOnUse">
<stop stop-color="#F7DD43"/>
<stop offset="1" stop-color="#F7DD43" stop-opacity="0"/>
</linearGradient>
<linearGradient id="paint36_linear_175_198" x1="109.5" y1="263" x2="109.5" y2="574.381" gradientUnits="userSpaceOnUse">
<stop stop-color="#F7DD43"/>
<stop offset="1" stop-color="#F7DD43" stop-opacity="0"/>
</linearGradient>
<linearGradient id="paint37_linear_175_198" x1="109.5" y1="263" x2="109.5" y2="574.381" gradientUnits="userSpaceOnUse">
<stop stop-color="#F7DD43"/>
<stop offset="1" stop-color="#F7DD43" stop-opacity="0"/>
</linearGradient>
<linearGradient id="paint38_linear_175_198" x1="109.5" y1="263" x2="109.5" y2="574.381" gradientUnits="userSpaceOnUse">
<stop stop-color="#F7DD43"/>
<stop offset="1" stop-color="#F7DD43" stop-opacity="0"/>
</linearGradient>
<linearGradient id="paint39_linear_175_198" x1="109.5" y1="263" x2="109.5" y2="574.381" gradientUnits="userSpaceOnUse">
<stop stop-color="#F7DD43"/>
<stop offset="1" stop-color="#F7DD43" stop-opacity="0"/>
</linearGradient>
<linearGradient id="paint40_linear_175_198" x1="109.5" y1="263" x2="109.5" y2="574.381" gradientUnits="userSpaceOnUse">
<stop stop-color="#F7DD43"/>
<stop offset="1" stop-color="#F7DD43" stop-opacity="0"/>
</linearGradient>
<linearGradient id="paint41_linear_175_198" x1="109.5" y1="263" x2="109.5" y2="574.381" gradientUnits="userSpaceOnUse">
<stop stop-color="#F7DD43"/>
<stop offset="1" stop-color="#F7DD43" stop-opacity="0"/>
</linearGradient>
<linearGradient id="paint42_linear_175_198" x1="109.5" y1="263" x2="109.5" y2="574.381" gradientUnits="userSpaceOnUse">
<stop stop-color="#F7DD43"/>
<stop offset="1" stop-color="#F7DD43" stop-opacity="0"/>
</linearGradient>
<linearGradient id="paint43_linear_175_198" x1="109.5" y1="263" x2="109.5" y2="574.381" gradientUnits="userSpaceOnUse">
<stop stop-color="#F7DD43"/>
<stop offset="1" stop-color="#F7DD43" stop-opacity="0"/>
</linearGradient>
<linearGradient id="paint44_linear_175_198" x1="109.5" y1="263" x2="109.5" y2="574.381" gradientUnits="userSpaceOnUse">
<stop stop-color="#F7DD43"/>
<stop offset="1" stop-color="#F7DD43" stop-opacity="0"/>
</linearGradient>
<linearGradient id="paint45_linear_175_198" x1="109.5" y1="263" x2="109.5" y2="574.381" gradientUnits="userSpaceOnUse">
<stop stop-color="#F7DD43"/>
<stop offset="1" stop-color="#F7DD43" stop-opacity="0"/>
</linearGradient>
<linearGradient id="paint46_linear_175_198" x1="109.5" y1="263" x2="109.5" y2="574.381" gradientUnits="userSpaceOnUse">
<stop stop-color="#F7DD43"/>
<stop offset="1" stop-color="#F7DD43" stop-opacity="0"/>
</linearGradient>
<linearGradient id="paint47_linear_175_198" x1="995.5" y1="-37" x2="995.5" y2="261.818" gradientUnits="userSpaceOnUse">
<stop stop-color="#F7DD43"/>
<stop offset="1" stop-color="#F7DD43" stop-opacity="0"/>
</linearGradient>
<linearGradient id="paint48_linear_175_198" x1="995.5" y1="-37" x2="995.5" y2="261.818" gradientUnits="userSpaceOnUse">
<stop stop-color="#F7DD43"/>
<stop offset="1" stop-color="#F7DD43" stop-opacity="0"/>
</linearGradient>
<linearGradient id="paint49_linear_175_198" x1="995.5" y1="-37" x2="995.5" y2="261.818" gradientUnits="userSpaceOnUse">
<stop stop-color="#F7DD43"/>
<stop offset="1" stop-color="#F7DD43" stop-opacity="0"/>
</linearGradient>
<linearGradient id="paint50_linear_175_198" x1="995.5" y1="-37" x2="995.5" y2="261.818" gradientUnits="userSpaceOnUse">
<stop stop-color="#F7DD43"/>
<stop offset="1" stop-color="#F7DD43" stop-opacity="0"/>
</linearGradient>
<linearGradient id="paint51_linear_175_198" x1="995.5" y1="-37" x2="995.5" y2="261.818" gradientUnits="userSpaceOnUse">
<stop stop-color="#F7DD43"/>
<stop offset="1" stop-color="#F7DD43" stop-opacity="0"/>
</linearGradient>
<linearGradient id="paint52_linear_175_198" x1="995.5" y1="-37" x2="995.5" y2="261.818" gradientUnits="userSpaceOnUse">
<stop stop-color="#F7DD43"/>
<stop offset="1" stop-color="#F7DD43" stop-opacity="0"/>
</linearGradient>
<linearGradient id="paint53_linear_175_198" x1="995.5" y1="-37" x2="995.5" y2="261.818" gradientUnits="userSpaceOnUse">
<stop stop-color="#F7DD43"/>
<stop offset="1" stop-color="#F7DD43" stop-opacity="0"/>
</linearGradient>
<linearGradient id="paint54_linear_175_198" x1="995.5" y1="-37" x2="995.5" y2="261.818" gradientUnits="userSpaceOnUse">
<stop stop-color="#F7DD43"/>
<stop offset="1" stop-color="#F7DD43" stop-opacity="0"/>
</linearGradient>
<linearGradient id="paint55_linear_175_198" x1="995.5" y1="-37" x2="995.5" y2="261.818" gradientUnits="userSpaceOnUse">
<stop stop-color="#F7DD43"/>
<stop offset="1" stop-color="#F7DD43" stop-opacity="0"/>
</linearGradient>
<linearGradient id="paint56_linear_175_198" x1="995.5" y1="-37" x2="995.5" y2="261.818" gradientUnits="userSpaceOnUse">
<stop stop-color="#F7DD43"/>
<stop offset="1" stop-color="#F7DD43" stop-opacity="0"/>
</linearGradient>
<linearGradient id="paint57_linear_175_198" x1="995.5" y1="-37" x2="995.5" y2="261.818" gradientUnits="userSpaceOnUse">
<stop stop-color="#F7DD43"/>
<stop offset="1" stop-color="#F7DD43" stop-opacity="0"/>
</linearGradient>
<linearGradient id="paint58_linear_175_198" x1="995.5" y1="-37" x2="995.5" y2="261.818" gradientUnits="userSpaceOnUse">
<stop stop-color="#F7DD43"/>
<stop offset="1" stop-color="#F7DD43" stop-opacity="0"/>
</linearGradient>
<linearGradient id="paint59_linear_175_198" x1="995.5" y1="-37" x2="995.5" y2="261.818" gradientUnits="userSpaceOnUse">
<stop stop-color="#F7DD43"/>
<stop offset="1" stop-color="#F7DD43" stop-opacity="0"/>
</linearGradient>
<linearGradient id="paint60_linear_175_198" x1="995.5" y1="-37" x2="995.5" y2="261.818" gradientUnits="userSpaceOnUse">
<stop stop-color="#F7DD43"/>
<stop offset="1" stop-color="#F7DD43" stop-opacity="0"/>
</linearGradient>
<linearGradient id="paint61_linear_175_198" x1="995.5" y1="-37" x2="995.5" y2="261.818" gradientUnits="userSpaceOnUse">
<stop stop-color="#F7DD43"/>
<stop offset="1" stop-color="#F7DD43" stop-opacity="0"/>
</linearGradient>
<linearGradient id="paint62_linear_175_198" x1="995.5" y1="-37" x2="995.5" y2="261.818" gradientUnits="userSpaceOnUse">
<stop stop-color="#F7DD43"/>
<stop offset="1" stop-color="#F7DD43" stop-opacity="0"/>
</linearGradient>
<linearGradient id="paint63_linear_175_198" x1="995.5" y1="-37" x2="995.5" y2="261.818" gradientUnits="userSpaceOnUse">
<stop stop-color="#F7DD43"/>
<stop offset="1" stop-color="#F7DD43" stop-opacity="0"/>
</linearGradient>
<linearGradient id="paint64_linear_175_198" x1="995.5" y1="-37" x2="995.5" y2="261.818" gradientUnits="userSpaceOnUse">
<stop stop-color="#F7DD43"/>
<stop offset="1" stop-color="#F7DD43" stop-opacity="0"/>
</linearGradient>
<linearGradient id="paint65_linear_175_198" x1="995.5" y1="-37" x2="995.5" y2="261.818" gradientUnits="userSpaceOnUse">
<stop stop-color="#F7DD43"/>
<stop offset="1" stop-color="#F7DD43" stop-opacity="0"/>
</linearGradient>
<linearGradient id="paint66_linear_175_198" x1="995.5" y1="-37" x2="995.5" y2="261.818" gradientUnits="userSpaceOnUse">
<stop stop-color="#F7DD43"/>
<stop offset="1" stop-color="#F7DD43" stop-opacity="0"/>
</linearGradient>
<linearGradient id="paint67_linear_175_198" x1="995.5" y1="-37" x2="995.5" y2="261.818" gradientUnits="userSpaceOnUse">
<stop stop-color="#F7DD43"/>
<stop offset="1" stop-color="#F7DD43" stop-opacity="0"/>
</linearGradient>
<linearGradient id="paint68_linear_175_198" x1="995.5" y1="-37" x2="995.5" y2="261.818" gradientUnits="userSpaceOnUse">
<stop stop-color="#F7DD43"/>
<stop offset="1" stop-color="#F7DD43" stop-opacity="0"/>
</linearGradient>
<linearGradient id="paint69_linear_175_198" x1="995.5" y1="-37" x2="995.5" y2="261.818" gradientUnits="userSpaceOnUse">
<stop stop-color="#F7DD43"/>
<stop offset="1" stop-color="#F7DD43" stop-opacity="0"/>
</linearGradient>
<linearGradient id="paint70_linear_175_198" x1="995.5" y1="-37" x2="995.5" y2="261.818" gradientUnits="userSpaceOnUse">
<stop stop-color="#F7DD43"/>
<stop offset="1" stop-color="#F7DD43" stop-opacity="0"/>
</linearGradient>
<linearGradient id="paint71_linear_175_198" x1="995.5" y1="-37" x2="995.5" y2="261.818" gradientUnits="userSpaceOnUse">
<stop stop-color="#F7DD43"/>
<stop offset="1" stop-color="#F7DD43" stop-opacity="0"/>
</linearGradient>
<linearGradient id="paint72_linear_175_198" x1="995.5" y1="-37" x2="995.5" y2="261.818" gradientUnits="userSpaceOnUse">
<stop stop-color="#F7DD43"/>
<stop offset="1" stop-color="#F7DD43" stop-opacity="0"/>
</linearGradient>
<linearGradient id="paint73_linear_175_198" x1="995.5" y1="-37" x2="995.5" y2="261.818" gradientUnits="userSpaceOnUse">
<stop stop-color="#F7DD43"/>
<stop offset="1" stop-color="#F7DD43" stop-opacity="0"/>
</linearGradient>
<linearGradient id="paint74_linear_175_198" x1="995.5" y1="-37" x2="995.5" y2="261.818" gradientUnits="userSpaceOnUse">
<stop stop-color="#F7DD43"/>
<stop offset="1" stop-color="#F7DD43" stop-opacity="0"/>
</linearGradient>
<linearGradient id="paint75_linear_175_198" x1="995.5" y1="-37" x2="995.5" y2="261.818" gradientUnits="userSpaceOnUse">
<stop stop-color="#F7DD43"/>
<stop offset="1" stop-color="#F7DD43" stop-opacity="0"/>
</linearGradient>
<linearGradient id="paint76_linear_175_198" x1="995.5" y1="-37" x2="995.5" y2="261.818" gradientUnits="userSpaceOnUse">
<stop stop-color="#F7DD43"/>
<stop offset="1" stop-color="#F7DD43" stop-opacity="0"/>
</linearGradient>
<linearGradient id="paint77_linear_175_198" x1="995.5" y1="-37" x2="995.5" y2="261.818" gradientUnits="userSpaceOnUse">
<stop stop-color="#F7DD43"/>
<stop offset="1" stop-color="#F7DD43" stop-opacity="0"/>
</linearGradient>
<linearGradient id="paint78_linear_175_198" x1="995.5" y1="-37" x2="995.5" y2="261.818" gradientUnits="userSpaceOnUse">
<stop stop-color="#F7DD43"/>
<stop offset="1" stop-color="#F7DD43" stop-opacity="0"/>
</linearGradient>
<linearGradient id="paint79_linear_175_198" x1="995.5" y1="-37" x2="995.5" y2="261.818" gradientUnits="userSpaceOnUse">
<stop stop-color="#F7DD43"/>
<stop offset="1" stop-color="#F7DD43" stop-opacity="0"/>
</linearGradient>
<linearGradient id="paint80_linear_175_198" x1="995.5" y1="-37" x2="995.5" y2="261.818" gradientUnits="userSpaceOnUse">
<stop stop-color="#F7DD43"/>
<stop offset="1" stop-color="#F7DD43" stop-opacity="0"/>
</linearGradient>
<linearGradient id="paint81_linear_175_198" x1="995.5" y1="-37" x2="995.5" y2="261.818" gradientUnits="userSpaceOnUse">
<stop stop-color="#F7DD43"/>
<stop offset="1" stop-color="#F7DD43" stop-opacity="0"/>
</linearGradient>
<linearGradient id="paint82_linear_175_198" x1="995.5" y1="-37" x2="995.5" y2="261.818" gradientUnits="userSpaceOnUse">
<stop stop-color="#F7DD43"/>
<stop offset="1" stop-color="#F7DD43" stop-opacity="0"/>
</linearGradient>
<linearGradient id="paint83_linear_175_198" x1="995.5" y1="-37" x2="995.5" y2="261.818" gradientUnits="userSpaceOnUse">
<stop stop-color="#F7DD43"/>
<stop offset="1" stop-color="#F7DD43" stop-opacity="0"/>
</linearGradient>
<linearGradient id="paint84_linear_175_198" x1="995.5" y1="-37" x2="995.5" y2="261.818" gradientUnits="userSpaceOnUse">
<stop stop-color="#F7DD43"/>
<stop offset="1" stop-color="#F7DD43" stop-opacity="0"/>
</linearGradient>
<linearGradient id="paint85_linear_175_198" x1="995.5" y1="-37" x2="995.5" y2="261.818" gradientUnits="userSpaceOnUse">
<stop stop-color="#F7DD43"/>
<stop offset="1" stop-color="#F7DD43" stop-opacity="0"/>
</linearGradient>
<linearGradient id="paint86_linear_175_198" x1="995.5" y1="-37" x2="995.5" y2="261.818" gradientUnits="userSpaceOnUse">
<stop stop-color="#F7DD43"/>
<stop offset="1" stop-color="#F7DD43" stop-opacity="0"/>
</linearGradient>
<linearGradient id="paint87_linear_175_198" x1="995.5" y1="-37" x2="995.5" y2="261.818" gradientUnits="userSpaceOnUse">
<stop stop-color="#F7DD43"/>
<stop offset="1" stop-color="#F7DD43" stop-opacity="0"/>
</linearGradient>
<linearGradient id="paint88_linear_175_198" x1="995.5" y1="-37" x2="995.5" y2="261.818" gradientUnits="userSpaceOnUse">
<stop stop-color="#F7DD43"/>
<stop offset="1" stop-color="#F7DD43" stop-opacity="0"/>
</linearGradient>
<linearGradient id="paint89_linear_175_198" x1="995.5" y1="-37" x2="995.5" y2="261.818" gradientUnits="userSpaceOnUse">
<stop stop-color="#F7DD43"/>
<stop offset="1" stop-color="#F7DD43" stop-opacity="0"/>
</linearGradient>
<linearGradient id="paint90_linear_175_198" x1="995.5" y1="-37" x2="995.5" y2="261.818" gradientUnits="userSpaceOnUse">
<stop stop-color="#F7DD43"/>
<stop offset="1" stop-color="#F7DD43" stop-opacity="0"/>
</linearGradient>
<linearGradient id="paint91_linear_175_198" x1="995.5" y1="-37" x2="995.5" y2="261.818" gradientUnits="userSpaceOnUse">
<stop stop-color="#F7DD43"/>
<stop offset="1" stop-color="#F7DD43" stop-opacity="0"/>
</linearGradient>
<linearGradient id="paint92_linear_175_198" x1="995.5" y1="-37" x2="995.5" y2="261.818" gradientUnits="userSpaceOnUse">
<stop stop-color="#F7DD43"/>
<stop offset="1" stop-color="#F7DD43" stop-opacity="0"/>
</linearGradient>
<linearGradient id="paint93_linear_175_198" x1="995.5" y1="-37" x2="995.5" y2="261.818" gradientUnits="userSpaceOnUse">
<stop stop-color="#F7DD43"/>
<stop offset="1" stop-color="#F7DD43" stop-opacity="0"/>
</linearGradient>
</defs>
</svg>
